<mxfile host="app.diagrams.net" modified="2022-04-06T11:54:40.944Z" agent="5.0 (Windows NT 10.0; Win64; x64) AppleWebKit/537.36 (KHTML, like Gecko) Chrome/100.0.4896.60 Safari/537.36 Edg/100.0.1185.29" etag="quzeVqsHq1CJVEXGBJ_P" version="17.4.0" type="github">
  <diagram name="Page-1" id="e7e014a7-5840-1c2e-5031-d8a46d1fe8dd">
    <mxGraphModel dx="861" dy="476" grid="1" gridSize="10" guides="1" tooltips="1" connect="1" arrows="1" fold="1" page="1" pageScale="1" pageWidth="1169" pageHeight="826" background="none" math="0" shadow="0">
      <root>
        <mxCell id="0" />
        <mxCell id="1" parent="0" />
        <mxCell id="qDRQyGsgRYgopAlpYiLs-45" value="" style="edgeStyle=orthogonalEdgeStyle;rounded=0;orthogonalLoop=1;jettySize=auto;html=1;" edge="1" parent="1" source="qDRQyGsgRYgopAlpYiLs-43" target="qDRQyGsgRYgopAlpYiLs-44">
          <mxGeometry relative="1" as="geometry" />
        </mxCell>
        <mxCell id="qDRQyGsgRYgopAlpYiLs-43" value="获取热门数据" style="rounded=0;whiteSpace=wrap;html=1;" vertex="1" parent="1">
          <mxGeometry x="160" y="320" width="120" height="60" as="geometry" />
        </mxCell>
        <mxCell id="qDRQyGsgRYgopAlpYiLs-50" value="" style="edgeStyle=orthogonalEdgeStyle;curved=1;rounded=0;orthogonalLoop=1;jettySize=auto;html=1;" edge="1" parent="1" source="qDRQyGsgRYgopAlpYiLs-44" target="qDRQyGsgRYgopAlpYiLs-49">
          <mxGeometry relative="1" as="geometry" />
        </mxCell>
        <mxCell id="qDRQyGsgRYgopAlpYiLs-44" value="查询热门话题id列表" style="whiteSpace=wrap;html=1;fillColor=rgb(255, 255, 255);strokeColor=rgb(0, 0, 0);fontColor=rgb(0, 0, 0);rounded=0;" vertex="1" parent="1">
          <mxGeometry x="310" y="320" width="120" height="60" as="geometry" />
        </mxCell>
        <mxCell id="qDRQyGsgRYgopAlpYiLs-48" value="" style="edgeStyle=orthogonalEdgeStyle;rounded=0;orthogonalLoop=1;jettySize=auto;html=1;curved=1;entryX=0.5;entryY=0;entryDx=0;entryDy=0;" edge="1" parent="1" source="qDRQyGsgRYgopAlpYiLs-46" target="qDRQyGsgRYgopAlpYiLs-44">
          <mxGeometry relative="1" as="geometry">
            <mxPoint x="430" y="350" as="targetPoint" />
          </mxGeometry>
        </mxCell>
        <mxCell id="qDRQyGsgRYgopAlpYiLs-46" value="Redis 热门数据id" style="shape=cylinder3;whiteSpace=wrap;html=1;boundedLbl=1;backgroundOutline=1;size=15;" vertex="1" parent="1">
          <mxGeometry x="340" y="200" width="60" height="80" as="geometry" />
        </mxCell>
        <mxCell id="qDRQyGsgRYgopAlpYiLs-56" value="" style="edgeStyle=orthogonalEdgeStyle;curved=1;rounded=0;orthogonalLoop=1;jettySize=auto;html=1;" edge="1" parent="1" source="qDRQyGsgRYgopAlpYiLs-49" target="qDRQyGsgRYgopAlpYiLs-53">
          <mxGeometry relative="1" as="geometry" />
        </mxCell>
        <mxCell id="qDRQyGsgRYgopAlpYiLs-49" value="获取对应帖子" style="whiteSpace=wrap;html=1;fillColor=rgb(255, 255, 255);strokeColor=rgb(0, 0, 0);fontColor=rgb(0, 0, 0);rounded=0;" vertex="1" parent="1">
          <mxGeometry x="465" y="320" width="120" height="60" as="geometry" />
        </mxCell>
        <mxCell id="qDRQyGsgRYgopAlpYiLs-52" value="" style="edgeStyle=orthogonalEdgeStyle;curved=1;rounded=0;orthogonalLoop=1;jettySize=auto;html=1;" edge="1" parent="1" source="qDRQyGsgRYgopAlpYiLs-51" target="qDRQyGsgRYgopAlpYiLs-49">
          <mxGeometry relative="1" as="geometry" />
        </mxCell>
        <mxCell id="qDRQyGsgRYgopAlpYiLs-51" value="帖子信息表" style="shape=cylinder3;whiteSpace=wrap;html=1;boundedLbl=1;backgroundOutline=1;size=15;" vertex="1" parent="1">
          <mxGeometry x="495" y="200" width="60" height="80" as="geometry" />
        </mxCell>
        <mxCell id="qDRQyGsgRYgopAlpYiLs-53" value="热门话题数据" style="shape=document;whiteSpace=wrap;html=1;boundedLbl=1;fillColor=rgb(255, 255, 255);strokeColor=rgb(0, 0, 0);fontColor=rgb(0, 0, 0);rounded=0;" vertex="1" parent="1">
          <mxGeometry x="620" y="310" width="120" height="80" as="geometry" />
        </mxCell>
      </root>
    </mxGraphModel>
  </diagram>
</mxfile>
